<mxfile host="app.diagrams.net" modified="2022-07-05T14:06:42.773Z" agent="5.0 (Windows NT 10.0; Win64; x64) AppleWebKit/537.36 (KHTML, like Gecko) Chrome/103.0.0.0 Safari/537.36" etag="qipoyjKp8_T3BTqZJ4br" version="20.0.4" type="github">
  <diagram id="rX_nU9rpXpqxfZHta58K" name="Page-1">
    <mxGraphModel dx="3710" dy="2730" grid="1" gridSize="10" guides="1" tooltips="1" connect="1" arrows="1" fold="1" page="1" pageScale="1" pageWidth="827" pageHeight="1169" math="0" shadow="0">
      <root>
        <mxCell id="0" />
        <mxCell id="1" parent="0" />
        <mxCell id="bA77wy72wNjTNJZrU2Mr-1" value="class LinkedLIst" style="swimlane;fontStyle=1;align=center;verticalAlign=top;childLayout=stackLayout;horizontal=1;startSize=26;horizontalStack=0;resizeParent=1;resizeParentMax=0;resizeLast=0;collapsible=1;marginBottom=0;" vertex="1" parent="1">
          <mxGeometry x="30" y="20" width="530" height="248" as="geometry" />
        </mxCell>
        <mxCell id="bA77wy72wNjTNJZrU2Mr-2" value="	Node* head;&#xa;	node* curr;" style="text;strokeColor=none;fillColor=none;align=left;verticalAlign=top;spacingLeft=4;spacingRight=4;overflow=hidden;rotatable=0;points=[[0,0.5],[1,0.5]];portConstraint=eastwest;" vertex="1" parent="bA77wy72wNjTNJZrU2Mr-1">
          <mxGeometry y="26" width="530" height="34" as="geometry" />
        </mxCell>
        <mxCell id="bA77wy72wNjTNJZrU2Mr-3" value="" style="line;strokeWidth=1;fillColor=none;align=left;verticalAlign=middle;spacingTop=-1;spacingLeft=3;spacingRight=3;rotatable=0;labelPosition=right;points=[];portConstraint=eastwest;" vertex="1" parent="bA77wy72wNjTNJZrU2Mr-1">
          <mxGeometry y="60" width="530" height="8" as="geometry" />
        </mxCell>
        <mxCell id="bA77wy72wNjTNJZrU2Mr-4" value="LinkedLIst();&#xa;	~LinkedLIst();&#xa;	Node* CreateNode();&#xa;	void SetNode(Node* n, const Member* x, Node* next);&#xa;	Node* search(LinkedLIst* list, const Member* x, int compare(const Member* x,const Member* y));&#xa;	void InsertPriority(LinkedLIst* list, const Member* x);&#xa;	void RemoveFront(LinkedLIst* list);&#xa;	void RemoveRear(LinkedLIst* list);&#xa;	void RemoveCurrent(LinkedLIst* list, Node* curr);&#xa;	void Clear(LinkedLIst* list);&#xa;	void Print(const LinkedLIst* list);" style="text;strokeColor=none;fillColor=none;align=left;verticalAlign=top;spacingLeft=4;spacingRight=4;overflow=hidden;rotatable=0;points=[[0,0.5],[1,0.5]];portConstraint=eastwest;" vertex="1" parent="bA77wy72wNjTNJZrU2Mr-1">
          <mxGeometry y="68" width="530" height="180" as="geometry" />
        </mxCell>
        <mxCell id="bA77wy72wNjTNJZrU2Mr-9" value="struct node" style="swimlane;fontStyle=1;align=center;verticalAlign=top;childLayout=stackLayout;horizontal=1;startSize=26;horizontalStack=0;resizeParent=1;resizeParentMax=0;resizeLast=0;collapsible=1;marginBottom=0;" vertex="1" parent="1">
          <mxGeometry x="50" y="310" width="160" height="78" as="geometry" />
        </mxCell>
        <mxCell id="bA77wy72wNjTNJZrU2Mr-10" value="Member data;&#xa;	struct node* next;" style="text;strokeColor=none;fillColor=none;align=left;verticalAlign=top;spacingLeft=4;spacingRight=4;overflow=hidden;rotatable=0;points=[[0,0.5],[1,0.5]];portConstraint=eastwest;" vertex="1" parent="bA77wy72wNjTNJZrU2Mr-9">
          <mxGeometry y="26" width="160" height="44" as="geometry" />
        </mxCell>
        <mxCell id="bA77wy72wNjTNJZrU2Mr-11" value="" style="line;strokeWidth=1;fillColor=none;align=left;verticalAlign=middle;spacingTop=-1;spacingLeft=3;spacingRight=3;rotatable=0;labelPosition=right;points=[];portConstraint=eastwest;" vertex="1" parent="bA77wy72wNjTNJZrU2Mr-9">
          <mxGeometry y="70" width="160" height="8" as="geometry" />
        </mxCell>
        <mxCell id="bA77wy72wNjTNJZrU2Mr-13" value="struct Member" style="swimlane;fontStyle=1;align=center;verticalAlign=top;childLayout=stackLayout;horizontal=1;startSize=26;horizontalStack=0;resizeParent=1;resizeParentMax=0;resizeLast=0;collapsible=1;marginBottom=0;" vertex="1" parent="1">
          <mxGeometry x="254" y="310" width="160" height="78" as="geometry" />
        </mxCell>
        <mxCell id="bA77wy72wNjTNJZrU2Mr-14" value="int no;&#xa;	char name[20];" style="text;strokeColor=none;fillColor=none;align=left;verticalAlign=top;spacingLeft=4;spacingRight=4;overflow=hidden;rotatable=0;points=[[0,0.5],[1,0.5]];portConstraint=eastwest;" vertex="1" parent="bA77wy72wNjTNJZrU2Mr-13">
          <mxGeometry y="26" width="160" height="44" as="geometry" />
        </mxCell>
        <mxCell id="bA77wy72wNjTNJZrU2Mr-15" value="" style="line;strokeWidth=1;fillColor=none;align=left;verticalAlign=middle;spacingTop=-1;spacingLeft=3;spacingRight=3;rotatable=0;labelPosition=right;points=[];portConstraint=eastwest;" vertex="1" parent="bA77wy72wNjTNJZrU2Mr-13">
          <mxGeometry y="70" width="160" height="8" as="geometry" />
        </mxCell>
        <mxCell id="bA77wy72wNjTNJZrU2Mr-26" style="edgeStyle=orthogonalEdgeStyle;rounded=0;orthogonalLoop=1;jettySize=auto;html=1;entryX=0.5;entryY=0;entryDx=0;entryDy=0;entryPerimeter=0;" edge="1" parent="1" source="bA77wy72wNjTNJZrU2Mr-23" target="bA77wy72wNjTNJZrU2Mr-24">
          <mxGeometry relative="1" as="geometry" />
        </mxCell>
        <mxCell id="bA77wy72wNjTNJZrU2Mr-23" value="Node* ptr = list-&gt;head;" style="rounded=1;whiteSpace=wrap;html=1;absoluteArcSize=1;arcSize=14;strokeWidth=2;" vertex="1" parent="1">
          <mxGeometry x="40" y="790" width="160" height="30" as="geometry" />
        </mxCell>
        <mxCell id="bA77wy72wNjTNJZrU2Mr-27" style="edgeStyle=orthogonalEdgeStyle;rounded=0;orthogonalLoop=1;jettySize=auto;html=1;entryX=0.5;entryY=0;entryDx=0;entryDy=0;entryPerimeter=0;" edge="1" parent="1" source="bA77wy72wNjTNJZrU2Mr-24" target="bA77wy72wNjTNJZrU2Mr-25">
          <mxGeometry relative="1" as="geometry" />
        </mxCell>
        <mxCell id="bA77wy72wNjTNJZrU2Mr-24" value="ptr != nullptr" style="strokeWidth=2;html=1;shape=mxgraph.flowchart.loop_limit;whiteSpace=wrap;" vertex="1" parent="1">
          <mxGeometry x="50" y="850" width="140" height="30" as="geometry" />
        </mxCell>
        <mxCell id="bA77wy72wNjTNJZrU2Mr-34" value="true" style="edgeStyle=orthogonalEdgeStyle;rounded=0;orthogonalLoop=1;jettySize=auto;html=1;" edge="1" parent="1" source="bA77wy72wNjTNJZrU2Mr-25" target="bA77wy72wNjTNJZrU2Mr-35">
          <mxGeometry relative="1" as="geometry">
            <mxPoint x="120" y="1060" as="targetPoint" />
          </mxGeometry>
        </mxCell>
        <mxCell id="bA77wy72wNjTNJZrU2Mr-39" value="false" style="edgeStyle=orthogonalEdgeStyle;rounded=0;orthogonalLoop=1;jettySize=auto;html=1;exitX=1;exitY=0.5;exitDx=0;exitDy=0;exitPerimeter=0;entryX=0.5;entryY=0;entryDx=0;entryDy=0;" edge="1" parent="1" source="bA77wy72wNjTNJZrU2Mr-25" target="bA77wy72wNjTNJZrU2Mr-36">
          <mxGeometry relative="1" as="geometry">
            <Array as="points">
              <mxPoint x="190" y="960" />
              <mxPoint x="190" y="1150" />
              <mxPoint x="120" y="1150" />
            </Array>
          </mxGeometry>
        </mxCell>
        <mxCell id="bA77wy72wNjTNJZrU2Mr-25" value="compare(&amp;ptr-&gt;data, x) == 0" style="strokeWidth=2;html=1;shape=mxgraph.flowchart.decision;whiteSpace=wrap;" vertex="1" parent="1">
          <mxGeometry x="70" y="910" width="100" height="100" as="geometry" />
        </mxCell>
        <mxCell id="bA77wy72wNjTNJZrU2Mr-29" style="edgeStyle=orthogonalEdgeStyle;rounded=0;orthogonalLoop=1;jettySize=auto;html=1;entryX=0.5;entryY=0;entryDx=0;entryDy=0;" edge="1" parent="1" source="bA77wy72wNjTNJZrU2Mr-28" target="bA77wy72wNjTNJZrU2Mr-23">
          <mxGeometry relative="1" as="geometry" />
        </mxCell>
        <mxCell id="bA77wy72wNjTNJZrU2Mr-28" value="Node* LinkedLIst::search(LinkedLIst* list, const Member* x, int compare(const Member* x, const Member* y))" style="rounded=1;whiteSpace=wrap;html=1;absoluteArcSize=1;arcSize=14;strokeWidth=2;" vertex="1" parent="1">
          <mxGeometry x="12.5" y="710" width="215" height="50" as="geometry" />
        </mxCell>
        <mxCell id="bA77wy72wNjTNJZrU2Mr-21" value="n-&gt;data = *x;&#xa;    n-&gt;next = next;" style="rounded=1;whiteSpace=wrap;html=1;absoluteArcSize=1;arcSize=14;strokeWidth=2;" vertex="1" parent="1">
          <mxGeometry x="305" y="630" width="100" height="60" as="geometry" />
        </mxCell>
        <mxCell id="bA77wy72wNjTNJZrU2Mr-31" style="edgeStyle=orthogonalEdgeStyle;rounded=0;orthogonalLoop=1;jettySize=auto;html=1;entryX=0.5;entryY=0;entryDx=0;entryDy=0;" edge="1" parent="1" source="bA77wy72wNjTNJZrU2Mr-30" target="bA77wy72wNjTNJZrU2Mr-21">
          <mxGeometry relative="1" as="geometry" />
        </mxCell>
        <mxCell id="bA77wy72wNjTNJZrU2Mr-30" value="void LinkedLIst::SetNode(Node* n, const Member* x, Node* next)" style="rounded=1;whiteSpace=wrap;html=1;absoluteArcSize=1;arcSize=14;strokeWidth=2;" vertex="1" parent="1">
          <mxGeometry x="270" y="540" width="170" height="60" as="geometry" />
        </mxCell>
        <mxCell id="bA77wy72wNjTNJZrU2Mr-18" value="Node* newNode = new Node();&#xa;    return newNode;" style="rounded=1;whiteSpace=wrap;html=1;absoluteArcSize=1;arcSize=14;strokeWidth=2;" vertex="1" parent="1">
          <mxGeometry x="30" y="610" width="180" height="60" as="geometry" />
        </mxCell>
        <mxCell id="bA77wy72wNjTNJZrU2Mr-33" style="edgeStyle=orthogonalEdgeStyle;rounded=0;orthogonalLoop=1;jettySize=auto;html=1;entryX=0.5;entryY=0;entryDx=0;entryDy=0;" edge="1" parent="1" source="bA77wy72wNjTNJZrU2Mr-32" target="bA77wy72wNjTNJZrU2Mr-18">
          <mxGeometry relative="1" as="geometry" />
        </mxCell>
        <mxCell id="bA77wy72wNjTNJZrU2Mr-32" value="Node* LinkedLIst::CreateNode()" style="rounded=1;whiteSpace=wrap;html=1;absoluteArcSize=1;arcSize=14;strokeWidth=2;" vertex="1" parent="1">
          <mxGeometry x="30" y="540" width="180" height="36" as="geometry" />
        </mxCell>
        <mxCell id="bA77wy72wNjTNJZrU2Mr-37" style="edgeStyle=orthogonalEdgeStyle;rounded=0;orthogonalLoop=1;jettySize=auto;html=1;entryX=0.5;entryY=0;entryDx=0;entryDy=0;" edge="1" parent="1" source="bA77wy72wNjTNJZrU2Mr-35" target="bA77wy72wNjTNJZrU2Mr-36">
          <mxGeometry relative="1" as="geometry" />
        </mxCell>
        <mxCell id="bA77wy72wNjTNJZrU2Mr-35" value="list-&gt;curr = ptr;&#xa;            return ptr;" style="rounded=1;whiteSpace=wrap;html=1;absoluteArcSize=1;arcSize=14;strokeWidth=2;" vertex="1" parent="1">
          <mxGeometry x="70" y="1060" width="100" height="50" as="geometry" />
        </mxCell>
        <mxCell id="bA77wy72wNjTNJZrU2Mr-40" style="edgeStyle=orthogonalEdgeStyle;rounded=0;orthogonalLoop=1;jettySize=auto;html=1;" edge="1" parent="1" source="bA77wy72wNjTNJZrU2Mr-36" target="bA77wy72wNjTNJZrU2Mr-41">
          <mxGeometry relative="1" as="geometry">
            <mxPoint x="120" y="1290" as="targetPoint" />
          </mxGeometry>
        </mxCell>
        <mxCell id="bA77wy72wNjTNJZrU2Mr-36" value="ptr = ptr-&gt;next;" style="rounded=1;whiteSpace=wrap;html=1;absoluteArcSize=1;arcSize=14;strokeWidth=2;" vertex="1" parent="1">
          <mxGeometry x="70" y="1190" width="100" height="30" as="geometry" />
        </mxCell>
        <mxCell id="bA77wy72wNjTNJZrU2Mr-42" style="edgeStyle=orthogonalEdgeStyle;rounded=0;orthogonalLoop=1;jettySize=auto;html=1;" edge="1" parent="1" source="bA77wy72wNjTNJZrU2Mr-41" target="bA77wy72wNjTNJZrU2Mr-43">
          <mxGeometry relative="1" as="geometry">
            <mxPoint x="120" y="1380" as="targetPoint" />
          </mxGeometry>
        </mxCell>
        <mxCell id="bA77wy72wNjTNJZrU2Mr-41" value="" style="strokeWidth=2;html=1;shape=mxgraph.flowchart.loop_limit;whiteSpace=wrap;rotation=-180;" vertex="1" parent="1">
          <mxGeometry x="70" y="1260" width="100" height="60" as="geometry" />
        </mxCell>
        <mxCell id="bA77wy72wNjTNJZrU2Mr-43" value="return nullptr;" style="rounded=1;whiteSpace=wrap;html=1;absoluteArcSize=1;arcSize=14;strokeWidth=2;" vertex="1" parent="1">
          <mxGeometry x="70" y="1360" width="100" height="40" as="geometry" />
        </mxCell>
        <mxCell id="bA77wy72wNjTNJZrU2Mr-45" style="edgeStyle=orthogonalEdgeStyle;rounded=0;orthogonalLoop=1;jettySize=auto;html=1;" edge="1" parent="1" source="bA77wy72wNjTNJZrU2Mr-44" target="bA77wy72wNjTNJZrU2Mr-46">
          <mxGeometry relative="1" as="geometry">
            <mxPoint x="430" y="830" as="targetPoint" />
          </mxGeometry>
        </mxCell>
        <mxCell id="bA77wy72wNjTNJZrU2Mr-44" value="void LinkedLIst::InsertPriority(LinkedLIst* list, const Member* x)" style="rounded=1;whiteSpace=wrap;html=1;absoluteArcSize=1;arcSize=14;strokeWidth=2;" vertex="1" parent="1">
          <mxGeometry x="310" y="740" width="240" height="40" as="geometry" />
        </mxCell>
        <mxCell id="bA77wy72wNjTNJZrU2Mr-47" style="edgeStyle=orthogonalEdgeStyle;rounded=0;orthogonalLoop=1;jettySize=auto;html=1;" edge="1" parent="1" source="bA77wy72wNjTNJZrU2Mr-46" target="bA77wy72wNjTNJZrU2Mr-48">
          <mxGeometry relative="1" as="geometry">
            <mxPoint x="430" y="980" as="targetPoint" />
          </mxGeometry>
        </mxCell>
        <mxCell id="bA77wy72wNjTNJZrU2Mr-46" value="Node* newNode = CreateNode();&#xa;    newNode-&gt;data = *x;&#xa;    newNode-&gt;next = nullptr;&#xa;    list-&gt;curr = list-&gt;head;" style="rounded=1;whiteSpace=wrap;html=1;absoluteArcSize=1;arcSize=14;strokeWidth=2;" vertex="1" parent="1">
          <mxGeometry x="295" y="830" width="270" height="90" as="geometry" />
        </mxCell>
        <mxCell id="bA77wy72wNjTNJZrU2Mr-49" value="true" style="edgeStyle=orthogonalEdgeStyle;rounded=0;orthogonalLoop=1;jettySize=auto;html=1;" edge="1" parent="1" source="bA77wy72wNjTNJZrU2Mr-48" target="bA77wy72wNjTNJZrU2Mr-50">
          <mxGeometry relative="1" as="geometry">
            <mxPoint x="430" y="1120" as="targetPoint" />
          </mxGeometry>
        </mxCell>
        <mxCell id="bA77wy72wNjTNJZrU2Mr-51" value="false" style="edgeStyle=orthogonalEdgeStyle;rounded=0;orthogonalLoop=1;jettySize=auto;html=1;entryX=0;entryY=0.5;entryDx=0;entryDy=0;entryPerimeter=0;" edge="1" parent="1" source="bA77wy72wNjTNJZrU2Mr-48" target="bA77wy72wNjTNJZrU2Mr-52">
          <mxGeometry relative="1" as="geometry">
            <mxPoint x="589.9999999999998" y="1010" as="targetPoint" />
          </mxGeometry>
        </mxCell>
        <mxCell id="bA77wy72wNjTNJZrU2Mr-48" value="list-&gt;head == NULL" style="strokeWidth=2;html=1;shape=mxgraph.flowchart.decision;whiteSpace=wrap;" vertex="1" parent="1">
          <mxGeometry x="350" y="960" width="160" height="100" as="geometry" />
        </mxCell>
        <mxCell id="bA77wy72wNjTNJZrU2Mr-50" value="list-&gt;head = newNode;" style="rounded=1;whiteSpace=wrap;html=1;absoluteArcSize=1;arcSize=14;strokeWidth=2;" vertex="1" parent="1">
          <mxGeometry x="380" y="1110" width="100" height="50" as="geometry" />
        </mxCell>
        <mxCell id="bA77wy72wNjTNJZrU2Mr-53" value="true" style="edgeStyle=orthogonalEdgeStyle;rounded=0;orthogonalLoop=1;jettySize=auto;html=1;" edge="1" parent="1" source="bA77wy72wNjTNJZrU2Mr-52" target="bA77wy72wNjTNJZrU2Mr-54">
          <mxGeometry relative="1" as="geometry">
            <mxPoint x="639.9999999999998" y="1110" as="targetPoint" />
          </mxGeometry>
        </mxCell>
        <mxCell id="bA77wy72wNjTNJZrU2Mr-55" value="false" style="edgeStyle=orthogonalEdgeStyle;rounded=0;orthogonalLoop=1;jettySize=auto;html=1;entryX=0.5;entryY=0;entryDx=0;entryDy=0;entryPerimeter=0;" edge="1" parent="1" source="bA77wy72wNjTNJZrU2Mr-52" target="bA77wy72wNjTNJZrU2Mr-56">
          <mxGeometry relative="1" as="geometry">
            <mxPoint x="789.9999999999998" y="1010" as="targetPoint" />
          </mxGeometry>
        </mxCell>
        <mxCell id="bA77wy72wNjTNJZrU2Mr-52" value="newNode-&gt;data.no &lt;= list-&gt;head-&gt;data.no" style="strokeWidth=2;html=1;shape=mxgraph.flowchart.decision;whiteSpace=wrap;" vertex="1" parent="1">
          <mxGeometry x="570" y="960" width="140" height="100" as="geometry" />
        </mxCell>
        <mxCell id="bA77wy72wNjTNJZrU2Mr-54" value="newNode-&gt;next = list-&gt;head;&#xa;        list-&gt;head = newNode;" style="rounded=1;whiteSpace=wrap;html=1;absoluteArcSize=1;arcSize=14;strokeWidth=2;" vertex="1" parent="1">
          <mxGeometry x="555" y="1099" width="170" height="70" as="geometry" />
        </mxCell>
        <mxCell id="bA77wy72wNjTNJZrU2Mr-57" style="edgeStyle=orthogonalEdgeStyle;rounded=0;orthogonalLoop=1;jettySize=auto;html=1;" edge="1" parent="1" source="bA77wy72wNjTNJZrU2Mr-56" target="bA77wy72wNjTNJZrU2Mr-58">
          <mxGeometry relative="1" as="geometry">
            <mxPoint x="819.9999999999998" y="1120" as="targetPoint" />
          </mxGeometry>
        </mxCell>
        <mxCell id="bA77wy72wNjTNJZrU2Mr-56" value="1" style="strokeWidth=2;html=1;shape=mxgraph.flowchart.loop_limit;whiteSpace=wrap;" vertex="1" parent="1">
          <mxGeometry x="770" y="1039" width="100" height="31" as="geometry" />
        </mxCell>
        <mxCell id="bA77wy72wNjTNJZrU2Mr-59" value="true" style="edgeStyle=orthogonalEdgeStyle;rounded=0;orthogonalLoop=1;jettySize=auto;html=1;" edge="1" parent="1" source="bA77wy72wNjTNJZrU2Mr-58" target="bA77wy72wNjTNJZrU2Mr-60">
          <mxGeometry relative="1" as="geometry">
            <mxPoint x="819.9999999999998" y="1250" as="targetPoint" />
          </mxGeometry>
        </mxCell>
        <mxCell id="bA77wy72wNjTNJZrU2Mr-61" value="true" style="edgeStyle=orthogonalEdgeStyle;rounded=0;orthogonalLoop=1;jettySize=auto;html=1;" edge="1" parent="1" source="bA77wy72wNjTNJZrU2Mr-58" target="bA77wy72wNjTNJZrU2Mr-62">
          <mxGeometry relative="1" as="geometry">
            <mxPoint x="960" y="1210" as="targetPoint" />
          </mxGeometry>
        </mxCell>
        <mxCell id="bA77wy72wNjTNJZrU2Mr-58" value="list-&gt;curr-&gt;next == NULL" style="strokeWidth=2;html=1;shape=mxgraph.flowchart.decision;whiteSpace=wrap;" vertex="1" parent="1">
          <mxGeometry x="769.9999999999998" y="1099" width="100" height="100" as="geometry" />
        </mxCell>
        <mxCell id="bA77wy72wNjTNJZrU2Mr-66" style="edgeStyle=orthogonalEdgeStyle;rounded=0;orthogonalLoop=1;jettySize=auto;html=1;entryX=0.5;entryY=0;entryDx=0;entryDy=0;" edge="1" parent="1" source="bA77wy72wNjTNJZrU2Mr-60" target="bA77wy72wNjTNJZrU2Mr-65">
          <mxGeometry relative="1" as="geometry" />
        </mxCell>
        <mxCell id="bA77wy72wNjTNJZrU2Mr-60" value="list-&gt;curr-&gt;next = newNode;&#xa;                break;" style="rounded=1;whiteSpace=wrap;html=1;absoluteArcSize=1;arcSize=14;strokeWidth=2;" vertex="1" parent="1">
          <mxGeometry x="769.9999999999998" y="1240" width="100" height="100" as="geometry" />
        </mxCell>
        <mxCell id="bA77wy72wNjTNJZrU2Mr-63" value="true" style="edgeStyle=orthogonalEdgeStyle;rounded=0;orthogonalLoop=1;jettySize=auto;html=1;" edge="1" parent="1" source="bA77wy72wNjTNJZrU2Mr-62" target="bA77wy72wNjTNJZrU2Mr-64">
          <mxGeometry relative="1" as="geometry">
            <mxPoint x="970" y="1240" as="targetPoint" />
          </mxGeometry>
        </mxCell>
        <mxCell id="bA77wy72wNjTNJZrU2Mr-68" value="false" style="edgeStyle=orthogonalEdgeStyle;rounded=0;orthogonalLoop=1;jettySize=auto;html=1;" edge="1" parent="1" source="bA77wy72wNjTNJZrU2Mr-62" target="bA77wy72wNjTNJZrU2Mr-65">
          <mxGeometry relative="1" as="geometry">
            <Array as="points">
              <mxPoint x="1100" y="1149" />
              <mxPoint x="1100" y="1380" />
              <mxPoint x="900" y="1380" />
            </Array>
          </mxGeometry>
        </mxCell>
        <mxCell id="bA77wy72wNjTNJZrU2Mr-62" value="newNode-&gt;data.no &lt; list-&gt;curr-&gt;next-&gt;data.no" style="strokeWidth=2;html=1;shape=mxgraph.flowchart.decision;whiteSpace=wrap;" vertex="1" parent="1">
          <mxGeometry x="920" y="1099" width="100" height="100" as="geometry" />
        </mxCell>
        <mxCell id="bA77wy72wNjTNJZrU2Mr-67" style="edgeStyle=orthogonalEdgeStyle;rounded=0;orthogonalLoop=1;jettySize=auto;html=1;" edge="1" parent="1" source="bA77wy72wNjTNJZrU2Mr-64">
          <mxGeometry relative="1" as="geometry">
            <mxPoint x="899.9999999999998" y="1420" as="targetPoint" />
          </mxGeometry>
        </mxCell>
        <mxCell id="bA77wy72wNjTNJZrU2Mr-64" value="newNode-&gt;next = list-&gt;curr-&gt;next;&#xa;                list-&gt;curr-&gt;next = newNode;&#xa;                break;" style="rounded=1;whiteSpace=wrap;html=1;absoluteArcSize=1;arcSize=14;strokeWidth=2;" vertex="1" parent="1">
          <mxGeometry x="920" y="1250" width="100" height="100" as="geometry" />
        </mxCell>
        <mxCell id="bA77wy72wNjTNJZrU2Mr-69" style="edgeStyle=orthogonalEdgeStyle;rounded=0;orthogonalLoop=1;jettySize=auto;html=1;" edge="1" parent="1" source="bA77wy72wNjTNJZrU2Mr-65" target="bA77wy72wNjTNJZrU2Mr-70">
          <mxGeometry relative="1" as="geometry">
            <mxPoint x="899.9999999999998" y="1580" as="targetPoint" />
          </mxGeometry>
        </mxCell>
        <mxCell id="bA77wy72wNjTNJZrU2Mr-65" value="list-&gt;curr = list-&gt;curr-&gt;next;" style="rounded=1;whiteSpace=wrap;html=1;absoluteArcSize=1;arcSize=14;strokeWidth=2;" vertex="1" parent="1">
          <mxGeometry x="850" y="1420" width="100" height="100" as="geometry" />
        </mxCell>
        <mxCell id="bA77wy72wNjTNJZrU2Mr-70" value="" style="strokeWidth=2;html=1;shape=mxgraph.flowchart.loop_limit;whiteSpace=wrap;rotation=-180;" vertex="1" parent="1">
          <mxGeometry x="849.9999999999998" y="1550" width="100" height="60" as="geometry" />
        </mxCell>
        <mxCell id="bA77wy72wNjTNJZrU2Mr-72" style="edgeStyle=orthogonalEdgeStyle;rounded=0;orthogonalLoop=1;jettySize=auto;html=1;" edge="1" parent="1" source="bA77wy72wNjTNJZrU2Mr-71" target="bA77wy72wNjTNJZrU2Mr-73">
          <mxGeometry relative="1" as="geometry">
            <mxPoint x="455" y="1360" as="targetPoint" />
          </mxGeometry>
        </mxCell>
        <mxCell id="bA77wy72wNjTNJZrU2Mr-71" value="void LinkedLIst::RemoveCurrent(LinkedLIst* list , Node* curr)" style="rounded=1;whiteSpace=wrap;html=1;absoluteArcSize=1;arcSize=14;strokeWidth=2;" vertex="1" parent="1">
          <mxGeometry x="330" y="1250" width="250" height="60" as="geometry" />
        </mxCell>
        <mxCell id="bA77wy72wNjTNJZrU2Mr-74" value="true" style="edgeStyle=orthogonalEdgeStyle;rounded=0;orthogonalLoop=1;jettySize=auto;html=1;" edge="1" parent="1" source="bA77wy72wNjTNJZrU2Mr-73" target="bA77wy72wNjTNJZrU2Mr-75">
          <mxGeometry relative="1" as="geometry">
            <mxPoint x="455" y="1510" as="targetPoint" />
          </mxGeometry>
        </mxCell>
        <mxCell id="bA77wy72wNjTNJZrU2Mr-73" value="list-&gt;head != nullptr" style="strokeWidth=2;html=1;shape=mxgraph.flowchart.decision;whiteSpace=wrap;" vertex="1" parent="1">
          <mxGeometry x="405" y="1360" width="100" height="100" as="geometry" />
        </mxCell>
        <mxCell id="bA77wy72wNjTNJZrU2Mr-76" value="true" style="edgeStyle=orthogonalEdgeStyle;rounded=0;orthogonalLoop=1;jettySize=auto;html=1;" edge="1" parent="1" source="bA77wy72wNjTNJZrU2Mr-75" target="bA77wy72wNjTNJZrU2Mr-77">
          <mxGeometry relative="1" as="geometry">
            <mxPoint x="455" y="1660" as="targetPoint" />
          </mxGeometry>
        </mxCell>
        <mxCell id="bA77wy72wNjTNJZrU2Mr-78" value="false" style="edgeStyle=orthogonalEdgeStyle;rounded=0;orthogonalLoop=1;jettySize=auto;html=1;" edge="1" parent="1" source="bA77wy72wNjTNJZrU2Mr-75" target="bA77wy72wNjTNJZrU2Mr-79">
          <mxGeometry relative="1" as="geometry">
            <mxPoint x="620" y="1660" as="targetPoint" />
          </mxGeometry>
        </mxCell>
        <mxCell id="bA77wy72wNjTNJZrU2Mr-75" value="curr == list-&gt;head)" style="strokeWidth=2;html=1;shape=mxgraph.flowchart.decision;whiteSpace=wrap;" vertex="1" parent="1">
          <mxGeometry x="405" y="1520" width="100" height="100" as="geometry" />
        </mxCell>
        <mxCell id="bA77wy72wNjTNJZrU2Mr-77" value="RemoveFront(list);" style="rounded=1;whiteSpace=wrap;html=1;absoluteArcSize=1;arcSize=14;strokeWidth=2;" vertex="1" parent="1">
          <mxGeometry x="397.5" y="1680" width="115" height="40" as="geometry" />
        </mxCell>
        <mxCell id="bA77wy72wNjTNJZrU2Mr-80" style="edgeStyle=orthogonalEdgeStyle;rounded=0;orthogonalLoop=1;jettySize=auto;html=1;" edge="1" parent="1" source="bA77wy72wNjTNJZrU2Mr-79" target="bA77wy72wNjTNJZrU2Mr-81">
          <mxGeometry relative="1" as="geometry">
            <mxPoint x="640" y="1660" as="targetPoint" />
          </mxGeometry>
        </mxCell>
        <mxCell id="bA77wy72wNjTNJZrU2Mr-79" value="Node* ptr = list-&gt;head;" style="rounded=1;whiteSpace=wrap;html=1;absoluteArcSize=1;arcSize=14;strokeWidth=2;" vertex="1" parent="1">
          <mxGeometry x="570" y="1545" width="140" height="50" as="geometry" />
        </mxCell>
        <mxCell id="bA77wy72wNjTNJZrU2Mr-83" style="edgeStyle=orthogonalEdgeStyle;rounded=0;orthogonalLoop=1;jettySize=auto;html=1;entryX=0.5;entryY=0;entryDx=0;entryDy=0;" edge="1" parent="1" source="bA77wy72wNjTNJZrU2Mr-81" target="bA77wy72wNjTNJZrU2Mr-82">
          <mxGeometry relative="1" as="geometry" />
        </mxCell>
        <mxCell id="bA77wy72wNjTNJZrU2Mr-81" value="ptr-&gt;next != curr" style="strokeWidth=2;html=1;shape=mxgraph.flowchart.loop_limit;whiteSpace=wrap;" vertex="1" parent="1">
          <mxGeometry x="590" y="1630" width="100" height="60" as="geometry" />
        </mxCell>
        <mxCell id="bA77wy72wNjTNJZrU2Mr-84" style="edgeStyle=orthogonalEdgeStyle;rounded=0;orthogonalLoop=1;jettySize=auto;html=1;" edge="1" parent="1" source="bA77wy72wNjTNJZrU2Mr-82" target="bA77wy72wNjTNJZrU2Mr-85">
          <mxGeometry relative="1" as="geometry">
            <mxPoint x="640" y="1820" as="targetPoint" />
          </mxGeometry>
        </mxCell>
        <mxCell id="bA77wy72wNjTNJZrU2Mr-82" value="ptr = ptr-&gt;next;" style="rounded=1;whiteSpace=wrap;html=1;absoluteArcSize=1;arcSize=14;strokeWidth=2;" vertex="1" parent="1">
          <mxGeometry x="590" y="1730" width="100" height="40" as="geometry" />
        </mxCell>
        <mxCell id="bA77wy72wNjTNJZrU2Mr-86" style="edgeStyle=orthogonalEdgeStyle;rounded=0;orthogonalLoop=1;jettySize=auto;html=1;" edge="1" parent="1" source="bA77wy72wNjTNJZrU2Mr-85" target="bA77wy72wNjTNJZrU2Mr-87">
          <mxGeometry relative="1" as="geometry">
            <mxPoint x="630" y="1900" as="targetPoint" />
          </mxGeometry>
        </mxCell>
        <mxCell id="bA77wy72wNjTNJZrU2Mr-85" value="" style="strokeWidth=2;html=1;shape=mxgraph.flowchart.loop_limit;whiteSpace=wrap;rotation=-180;" vertex="1" parent="1">
          <mxGeometry x="590" y="1790" width="100" height="60" as="geometry" />
        </mxCell>
        <mxCell id="bA77wy72wNjTNJZrU2Mr-87" value="ptr-&gt;next = curr-&gt;next;&#xa;            delete curr;&#xa;            curr = ptr;" style="rounded=1;whiteSpace=wrap;html=1;absoluteArcSize=1;arcSize=14;strokeWidth=2;" vertex="1" parent="1">
          <mxGeometry x="590" y="1890" width="100" height="100" as="geometry" />
        </mxCell>
        <mxCell id="bA77wy72wNjTNJZrU2Mr-89" style="edgeStyle=orthogonalEdgeStyle;rounded=0;orthogonalLoop=1;jettySize=auto;html=1;" edge="1" parent="1" source="bA77wy72wNjTNJZrU2Mr-88" target="bA77wy72wNjTNJZrU2Mr-90">
          <mxGeometry relative="1" as="geometry">
            <mxPoint x="160" y="1630" as="targetPoint" />
          </mxGeometry>
        </mxCell>
        <mxCell id="bA77wy72wNjTNJZrU2Mr-88" value="void LinkedLIst::Clear(LinkedLIst* list)" style="rounded=1;whiteSpace=wrap;html=1;absoluteArcSize=1;arcSize=14;strokeWidth=2;" vertex="1" parent="1">
          <mxGeometry x="60" y="1510" width="200" height="60" as="geometry" />
        </mxCell>
        <mxCell id="bA77wy72wNjTNJZrU2Mr-91" style="edgeStyle=orthogonalEdgeStyle;rounded=0;orthogonalLoop=1;jettySize=auto;html=1;entryX=0.5;entryY=0;entryDx=0;entryDy=0;" edge="1" parent="1" source="bA77wy72wNjTNJZrU2Mr-90" target="bA77wy72wNjTNJZrU2Mr-92">
          <mxGeometry relative="1" as="geometry">
            <mxPoint x="160" y="1710" as="targetPoint" />
          </mxGeometry>
        </mxCell>
        <mxCell id="bA77wy72wNjTNJZrU2Mr-90" value="list-&gt;head != nullptr" style="strokeWidth=2;html=1;shape=mxgraph.flowchart.loop_limit;whiteSpace=wrap;" vertex="1" parent="1">
          <mxGeometry x="85" y="1600" width="150" height="60" as="geometry" />
        </mxCell>
        <mxCell id="bA77wy72wNjTNJZrU2Mr-93" style="edgeStyle=orthogonalEdgeStyle;rounded=0;orthogonalLoop=1;jettySize=auto;html=1;" edge="1" parent="1" source="bA77wy72wNjTNJZrU2Mr-92" target="bA77wy72wNjTNJZrU2Mr-94">
          <mxGeometry relative="1" as="geometry">
            <mxPoint x="160" y="1790" as="targetPoint" />
          </mxGeometry>
        </mxCell>
        <mxCell id="bA77wy72wNjTNJZrU2Mr-92" value="RemoveFront(list);&#xa;        list-&gt;curr = nullptr;" style="rounded=1;whiteSpace=wrap;html=1;absoluteArcSize=1;arcSize=14;strokeWidth=2;" vertex="1" parent="1">
          <mxGeometry x="80" y="1700" width="160" height="40" as="geometry" />
        </mxCell>
        <mxCell id="bA77wy72wNjTNJZrU2Mr-94" value="" style="strokeWidth=2;html=1;shape=mxgraph.flowchart.loop_limit;whiteSpace=wrap;rotation=-180;" vertex="1" parent="1">
          <mxGeometry x="110" y="1760" width="100" height="60" as="geometry" />
        </mxCell>
        <mxCell id="bA77wy72wNjTNJZrU2Mr-97" style="edgeStyle=orthogonalEdgeStyle;rounded=0;orthogonalLoop=1;jettySize=auto;html=1;entryX=0.5;entryY=0;entryDx=0;entryDy=0;entryPerimeter=0;" edge="1" parent="1" source="bA77wy72wNjTNJZrU2Mr-95" target="bA77wy72wNjTNJZrU2Mr-96">
          <mxGeometry relative="1" as="geometry" />
        </mxCell>
        <mxCell id="bA77wy72wNjTNJZrU2Mr-95" value="void LinkedLIst::Print(const LinkedLIst* list)" style="rounded=1;whiteSpace=wrap;html=1;absoluteArcSize=1;arcSize=14;strokeWidth=2;" vertex="1" parent="1">
          <mxGeometry x="40" y="1830" width="260" height="60" as="geometry" />
        </mxCell>
        <mxCell id="bA77wy72wNjTNJZrU2Mr-98" value="true" style="edgeStyle=orthogonalEdgeStyle;rounded=0;orthogonalLoop=1;jettySize=auto;html=1;" edge="1" parent="1" source="bA77wy72wNjTNJZrU2Mr-96" target="bA77wy72wNjTNJZrU2Mr-99">
          <mxGeometry relative="1" as="geometry">
            <mxPoint x="170" y="2090" as="targetPoint" />
          </mxGeometry>
        </mxCell>
        <mxCell id="bA77wy72wNjTNJZrU2Mr-100" value="false" style="edgeStyle=orthogonalEdgeStyle;rounded=0;orthogonalLoop=1;jettySize=auto;html=1;" edge="1" parent="1" source="bA77wy72wNjTNJZrU2Mr-96" target="bA77wy72wNjTNJZrU2Mr-101">
          <mxGeometry relative="1" as="geometry">
            <mxPoint x="310" y="2060" as="targetPoint" />
          </mxGeometry>
        </mxCell>
        <mxCell id="bA77wy72wNjTNJZrU2Mr-96" value="list-&gt;head == nullptr" style="strokeWidth=2;html=1;shape=mxgraph.flowchart.decision;whiteSpace=wrap;" vertex="1" parent="1">
          <mxGeometry x="90" y="1940" width="160" height="100" as="geometry" />
        </mxCell>
        <mxCell id="bA77wy72wNjTNJZrU2Mr-99" value="std::cout &lt;&lt; &quot;노드없음&quot;;" style="strokeWidth=2;html=1;shape=mxgraph.flowchart.document2;whiteSpace=wrap;size=0.25;" vertex="1" parent="1">
          <mxGeometry x="120" y="2080" width="100" height="60" as="geometry" />
        </mxCell>
        <mxCell id="bA77wy72wNjTNJZrU2Mr-102" style="edgeStyle=orthogonalEdgeStyle;rounded=0;orthogonalLoop=1;jettySize=auto;html=1;" edge="1" parent="1" source="bA77wy72wNjTNJZrU2Mr-101" target="bA77wy72wNjTNJZrU2Mr-103">
          <mxGeometry relative="1" as="geometry">
            <mxPoint x="370" y="2100" as="targetPoint" />
          </mxGeometry>
        </mxCell>
        <mxCell id="bA77wy72wNjTNJZrU2Mr-101" value="Node* ptr = list-&gt;head;" style="rounded=1;whiteSpace=wrap;html=1;absoluteArcSize=1;arcSize=14;strokeWidth=2;" vertex="1" parent="1">
          <mxGeometry x="320" y="1940" width="100" height="100" as="geometry" />
        </mxCell>
        <mxCell id="bA77wy72wNjTNJZrU2Mr-104" style="edgeStyle=orthogonalEdgeStyle;rounded=0;orthogonalLoop=1;jettySize=auto;html=1;" edge="1" parent="1" source="bA77wy72wNjTNJZrU2Mr-103" target="bA77wy72wNjTNJZrU2Mr-105">
          <mxGeometry relative="1" as="geometry">
            <mxPoint x="370" y="2170" as="targetPoint" />
          </mxGeometry>
        </mxCell>
        <mxCell id="bA77wy72wNjTNJZrU2Mr-103" value="ptr != nullptr" style="strokeWidth=2;html=1;shape=mxgraph.flowchart.loop_limit;whiteSpace=wrap;" vertex="1" parent="1">
          <mxGeometry x="320" y="2070" width="100" height="60" as="geometry" />
        </mxCell>
        <mxCell id="bA77wy72wNjTNJZrU2Mr-106" style="edgeStyle=orthogonalEdgeStyle;rounded=0;orthogonalLoop=1;jettySize=auto;html=1;entryX=0.5;entryY=0;entryDx=0;entryDy=0;" edge="1" parent="1" source="bA77wy72wNjTNJZrU2Mr-105" target="bA77wy72wNjTNJZrU2Mr-107">
          <mxGeometry relative="1" as="geometry">
            <mxPoint x="370" y="2250" as="targetPoint" />
          </mxGeometry>
        </mxCell>
        <mxCell id="bA77wy72wNjTNJZrU2Mr-105" value="std::cout &lt;&lt; ptr-&gt;data.no;&#xa;            std::cout &lt;&lt; ptr-&gt;data.name&lt;&lt; std::endl;" style="strokeWidth=2;html=1;shape=mxgraph.flowchart.document2;whiteSpace=wrap;size=0.25;" vertex="1" parent="1">
          <mxGeometry x="320" y="2140" width="100" height="60" as="geometry" />
        </mxCell>
        <mxCell id="bA77wy72wNjTNJZrU2Mr-107" value="ptr = ptr-&gt;next;" style="rounded=1;whiteSpace=wrap;html=1;absoluteArcSize=1;arcSize=14;strokeWidth=2;" vertex="1" parent="1">
          <mxGeometry x="320" y="2230" width="100" height="40" as="geometry" />
        </mxCell>
      </root>
    </mxGraphModel>
  </diagram>
</mxfile>
